<?xml version="1.0" encoding="iso-8859-1"?>
<!-- Generator: Adobe Illustrator 16.0.0, SVG Export Plug-In . SVG Version: 6.00 Build 0)  -->
<!DOCTYPE svg PUBLIC "-//W3C//DTD SVG 1.1//EN" "http://www.w3.org/Graphics/SVG/1.1/DTD/svg11.dtd">
<svg xmlns="http://www.w3.org/2000/svg" xmlns:xlink="http://www.w3.org/1999/xlink" version="1.1" id="Capa_1" x="0px" y="0px" width="512px" height="512px" viewBox="0 0 525.403 525.402" style="enable-background:new 0 0 525.403 525.402;" xml:space="preserve">
<g>
	<g>
		<path d="M208.906,0c-15.291,0-29.118,6.206-39.12,16.247l0,0l-8.97-9.056c-3.94-3.959-11.724-6.809-16.839-4.581    c-10.567,4.619-26.747,17.375-32.79,52.594c-4.81,28.094-14.63,30.007-22.95,25.35c-9.754-5.451-12.546-5.068-6.856,4.562    c6.77,11.446,19.154,22.28,40.564,13.167c36.596-15.597,7.87-74.167,34.97-61.525c-2.046,5.776-3.223,11.972-3.223,18.446    c0,30.495,24.709,55.185,55.214,55.185s55.214-24.69,55.214-55.185C264.12,24.69,239.41,0,208.906,0z" fill="#19a974"/>
		<path d="M296.88,251.274c2.189,0.593,4.398,0.861,6.589,0.861c10.002,0,19.373-5.881,23.514-15.443l16.716-38.604l35.438,5.929    c7.086,8.233,17.451,13.55,29.165,13.55c21.344,0,38.643-17.299,38.643-38.642c0-21.325-17.299-38.614-38.643-38.614    c-10.958,0-20.798,4.609-27.826,11.925l-15.778-2.64l6.703-15.481c0.058-0.134,0.076-0.277,0.134-0.411    c12.384-6.436,20.923-19.23,20.923-34.157c0-21.334-17.299-38.613-38.643-38.613c-21.343,0-38.632,17.279-38.632,38.613    c0,7.727,2.323,14.889,6.225,20.932l-8.835,20.397l-73.583-12.316c-2.113-0.354-4.198-0.354-6.244-0.191l-30.17-3.347    c-5.556-0.612-14.181,0.774-18.981,3.634c-69.787,41.625-62.845,151.394-62.845,151.394l0.125,0.028    c0,2.812,0.229,5.651,0.956,8.491l19.278,74.989l-40.306,116.472c-6.177,17.844,3.28,37.322,21.124,43.5    c3.701,1.271,7.468,1.874,11.179,1.874c14.162,0,27.406-8.874,32.302-23.008l43.691-126.215c0.354-1.023,0.583-2.095,0.832-3.146    l15.567,15.147l63.017,119.043c6.139,11.58,17.987,18.179,30.256,18.179c5.394,0,10.872-1.291,15.96-3.969    c16.696-8.845,23.045-29.529,14.21-46.216l-65.532-123.786c-1.674-3.155-3.815-6.024-6.378-8.521l-71.394-69.462l10.701-43.576    L296.88,251.274z M228.939,178.704c0.545,0.134,1.042,0.335,1.606,0.43l61.056,10.223l-2.897,6.684l-60.11-15.96L228.939,178.704z    " fill="#19a974"/>
	</g>
</g>
<g>
</g>
<g>
</g>
<g>
</g>
<g>
</g>
<g>
</g>
<g>
</g>
<g>
</g>
<g>
</g>
<g>
</g>
<g>
</g>
<g>
</g>
<g>
</g>
<g>
</g>
<g>
</g>
<g>
</g>
</svg>
